<svg id="Ebene_1" data-name="Ebene 1" xmlns="http://www.w3.org/2000/svg" xmlns:xlink="http://www.w3.org/1999/xlink" viewBox="0 0 190.95 161.92"><defs><style>.cls-1{fill-rule:evenodd;fill:url(#Unbenannter_Verlauf_15);}.cls-2{fill:url(#Unbenannter_Verlauf_15-2);}.cls-3{fill:url(#Unbenannter_Verlauf_15-3);}.cls-4{fill:url(#Unbenannter_Verlauf_15-4);}.cls-5{fill:url(#Unbenannter_Verlauf_15-5);}</style><linearGradient id="Unbenannter_Verlauf_15" x1="17.73" y1="73.4" x2="208.68" y2="73.4" gradientUnits="userSpaceOnUse"><stop offset="0" stop-color="#345ea5"/><stop offset="1" stop-color="#48bac2"/></linearGradient><linearGradient id="Unbenannter_Verlauf_15-2" x1="77.59" y1="139.56" x2="82.17" y2="139.56" xlink:href="#Unbenannter_Verlauf_15"/><linearGradient id="Unbenannter_Verlauf_15-3" x1="67.89" y1="166.79" x2="91.87" y2="166.79" xlink:href="#Unbenannter_Verlauf_15"/><linearGradient id="Unbenannter_Verlauf_15-4" x1="144.97" y1="134.42" x2="150" y2="134.42" xlink:href="#Unbenannter_Verlauf_15"/><linearGradient id="Unbenannter_Verlauf_15-5" x1="135.5" y1="166.77" x2="159.47" y2="166.77" xlink:href="#Unbenannter_Verlauf_15"/></defs><path class="cls-1" d="M167,46.51H149.1A49.3,49.3,0,0,0,54.6,65.08H50.17a32.44,32.44,0,0,0,0,64.88H82.11V106.21l6.09-3,5.28-2.64,6.08-3V130h5.28V89L93.48,94.64V84.49h17.45V130h16.65V74.75L145,83.47V130H167a41.33,41.33,0,0,0,16.16-3.28A41.71,41.71,0,0,0,167,46.51Zm-44.66,78.17h-6.08V79.21H104.84V69.74L122.29,61Zm44.66,0H150.31V80.23l-1.47-.73L127.58,68.87V52.49l-3.82,1.91L101,65.77l-1.47.73V79.21H88.2V97.28l-9.9,5-1.47.73v21.71H50.17a27.16,27.16,0,0,1,0-54.32h9.6l.11-5.16a44,44,0,0,1,84.37-16.58l1.38,3.17H167a36.45,36.45,0,1,1,0,72.89Z" transform="translate(-17.73 -16.85)"/><path class="cls-2" d="M79.88,159a2.14,2.14,0,0,1-2.29-2v-35a2.32,2.32,0,0,1,4.58,0v35A2.14,2.14,0,0,1,79.88,159Z" transform="translate(-17.73 -16.85)"/><path class="cls-3" d="M79.88,178.77a12,12,0,1,1,12-12A12,12,0,0,1,79.88,178.77Zm0-19.67a7.69,7.69,0,1,0,7.69,7.69A7.7,7.7,0,0,0,79.88,159.1Z" transform="translate(-17.73 -16.85)"/><path class="cls-4" d="M147.48,156.93a2.4,2.4,0,0,1-2.51-2.26V114.18a2.53,2.53,0,0,1,5,0v40.49A2.4,2.4,0,0,1,147.48,156.93Z" transform="translate(-17.73 -16.85)"/><path class="cls-5" d="M147.48,178.75a12,12,0,1,1,12-12A12,12,0,0,1,147.48,178.75Zm0-19.68a7.7,7.7,0,1,0,7.69,7.7A7.7,7.7,0,0,0,147.48,159.07Z" transform="translate(-17.73 -16.85)"/></svg>